<?xml version="1.0" encoding="utf-8"?>
<!-- Generator: Adobe Illustrator 21.0.0, SVG Export Plug-In . SVG Version: 6.00 Build 0)  -->
<svg version="1.1" id="Capa_1" xmlns="http://www.w3.org/2000/svg" xmlns:xlink="http://www.w3.org/1999/xlink" x="0px" y="0px"
	 viewBox="0 0 1000 600" style="enable-background:new 0 0 1000 600;" xml:space="preserve">
<style type="text/css">
	.st0{fill-rule:evenodd;clip-rule:evenodd;fill:none;stroke:#5B007F;stroke-width:29;stroke-miterlimit:10;}
	.st1{fill-rule:evenodd;clip-rule:evenodd;fill:none;stroke:#ED1E79;stroke-width:11;stroke-miterlimit:10;}
	.st2{fill-rule:evenodd;clip-rule:evenodd;fill:url(#SVGID_1_);stroke:#FBE454;stroke-width:4;stroke-miterlimit:10;}
	.st3{fill-rule:evenodd;clip-rule:evenodd;fill:url(#SVGID_2_);stroke:#FBE454;stroke-width:4;stroke-miterlimit:10;}
	.st4{fill:#F6398B;}
	.st5{fill:none;stroke:#5B007F;stroke-width:5;stroke-miterlimit:10;}
	.st6{fill:#FBE454;}
	.st7{fill:none;stroke:#5B007F;stroke-width:7;stroke-miterlimit:10;}
</style>
<g>
	<path class="st0" d="M642.7,343.4c-5-0.5-10.6-2.2-11.8-7.6l-0.1-0.3l0.2-214.1l-33.3,26c0.1,20.3,0,40.7,0,61l0,4l-3.8-1
		c-18-4.9-41.8-2.1-58,7.3c-28.5,16.5-45,42.9-45.1,76c-0.1,29.2,13,53.8,37.7,69.2c22.3,13.8,58.8,19.4,80.9,2.6l1.9-1.4l1.8,1.5
		c8,6.4,22.5,9.9,33.5,10L642.7,343.4z M585,326.8l-1,0.6c-22.2,13.3-48.1-8.1-47-35.3c0.3-6.9,2.3-13.5,5.8-19.2
		c9.2-15.1,25.9-20.6,40.9-13.7l1.2,0.6V326.8z M474.3,370.1l0-126c0-13.1-4.9-32.4-20.8-33.5c-11-0.2-19.8,5.3-26.2,14l-5.4,7.4
		l-0.1-17.9c-11.1-0.1-22.2,0-33.3,0l-0.1,130.1l-1.6,0.8c-10.8,5.6-21.9,4.5-26.5-8.5L360,336l0.1-78.9c0-23.7-17.6-43.7-41.1-46.5
		c-23.5-2.8-44.6,12.2-50.8,34.6l31.9,8.8c1.6-5.7,6.3-10.1,12.5-10.4c7.7-0.3,14.1,5.6,14.5,13.3v0.1l-0.1,23.2l-4.7-3.2
		c-6.4-4.3-10.6-5.6-18.3-5.5c-12.4,0.1-24.9,5.9-33.8,14.4c-11.3,10.8-17.7,25.7-16.5,41.4c2,26.5,22.7,47.3,49.2,49.3
		c13,1,25.6-2.9,36.2-10.4l1.7-1.2l1.7,1.2c3.2,2.2,6.4,3.7,10.1,4.5l0.2,0c7,1.9,13.4,2.7,20.7,3.1c15,0.8,30.2,0.3,45.3,0.3
		l-0.1-100.7c0-11.8,11.2-24.8,20.4-31.2l4.4-3.1l0.3,5.4c0.3,4.5-0.2,9,0.1,13.5l0,0.1l-0.1,120L474.3,370.1z M321.3,334.2
		c-6.5,9.5-21.2,10.1-28.4,1.2c-5-5.9-5.7-13.7-2.1-20.4c4.1-7.6,13.5-11.1,21.6-8.2C323.8,310.4,328.6,324.6,321.3,334.2z
		 M236.7,330.9c-15.4,6.3-31.6,9.6-48.3,8.7c-53.6-3-95.9-43.5-98.5-97.7c-2.3-48.1,29.5-91.4,75.8-103.9
		c22.6-6.1,48.5-3.6,70.1,5.8l-0.1-39.5c-39.4-11.7-79.3-8.5-114.7,13.1c-41.9,25.6-68,70.9-67.4,120.2
		c0.4,33.8,11.2,64.1,33.4,89.7c22.4,25.8,52.8,43.5,86.9,47.7c21.6,2.6,56.2,0.6,74.7-12.6L236.7,330.9z"/>
	<path class="st0" d="M740.1,214.3l-33.6-0.1l0.2,97.3c0,13.5-5.4,18.2-14.1,26.9l-5.2,5.1L687.3,214l-33.1,0.4l0.1,128.8
		c0,16.7,10.9,30.6,28,31.9c7.6,0.6,13.9-4.4,19-9.5l5.2-5.2l0,7.3c-0.2,6.3-0.4,12.5-0.5,18.8c0.1,11-1.3,28.5-10.1,47.3
		c-13.4,28.6-35.8,42.9-52.7,53.3c-42.4,26.2-85.8,29.3-109.7,29c-0.6,0-2.8,0.8-4.4-0.3c-1.1-0.7-1.9-2.2-1.6-3.4
		c0.6-1.9,4.1-2.3,4.8-2.4c7.1-1.2,40.9-24.4,51.4-62.5c3.6-13,3.4-27.3-2.4-39.6c-1.3-2.7-8.5-15.7-22.7-19.4
		c-15.6-4-34,5-44.8,22.6c-1.1,2.1-2.1,4.2-3.2,6.3c-0.5-1.6-1.1-3.2-1.6-4.8c-1.2-3.4-4.3-10.6-11.5-16.3
		c-9.1-7.2-21.5-9.7-32.1-6.5c-17.5,5.4-23.7,24.7-24.7,27.6c-10,31.2,15.4,72.5,47.6,92c24.8,15,54,13.5,82.5,12.7
		c8.1-0.2,19.5-0.6,33.3-3.2c64.3-12.1,113-59.6,124.6-89.8c7-18.2,9.7-38.7,9.7-38.7c0.2-1.8,0.9-7,1.3-13.7
		C741.3,346.9,740.2,226.8,740.1,214.3z M509,507.6l-1.4,0.9l-1.6-0.7c-17-8.8-27.4-19.8-33-26.8c-5.2-6.5-23.4-29.5-18-52.9
		c1.9-8.1,5.5-11.5,6.6-12.6c7.7-7.9,19.4-7,28.9-3.3l0.1,0l0.1,0.1c8,4.1,14.1,7.8,19,14.8c9.5-10.8,23.9-19.4,38.6-16.9
		c6,1,11.5,4.7,14.9,9.8c5.1,7.7,4.7,17.2,2.3,25.8C558.5,471.5,530.2,493.7,509,507.6z"/>
</g>
<g>
	<path class="st1" d="M642.7,343.4c-5-0.5-10.6-2.2-11.8-7.6l-0.1-0.3l0.2-214.1l-33.3,26c0.1,20.3,0,40.7,0,61l0,4l-3.8-1
		c-18-4.9-41.8-2.1-58,7.3c-28.5,16.5-45,42.9-45.1,76c-0.1,29.2,13,53.8,37.7,69.2c22.3,13.8,58.8,19.4,80.9,2.6l1.9-1.4l1.8,1.5
		c8,6.4,22.5,9.9,33.5,10L642.7,343.4z M585,326.8l-1,0.6c-22.2,13.3-48.1-8.1-47-35.3c0.3-6.9,2.3-13.5,5.8-19.2
		c9.2-15.1,25.9-20.6,40.9-13.7l1.2,0.6V326.8z M474.3,370.1l0-126c0-13.1-4.9-32.4-20.8-33.5c-11-0.2-19.8,5.3-26.2,14l-5.4,7.4
		l-0.1-17.9c-11.1-0.1-22.2,0-33.3,0l-0.1,130.1l-1.6,0.8c-10.8,5.6-21.9,4.5-26.5-8.5L360,336l0.1-78.9c0-23.7-17.6-43.7-41.1-46.5
		c-23.5-2.8-44.6,12.2-50.8,34.6l31.9,8.8c1.6-5.7,6.3-10.1,12.5-10.4c7.7-0.3,14.1,5.6,14.5,13.3v0.1l-0.1,23.2l-4.7-3.2
		c-6.4-4.3-10.6-5.6-18.3-5.5c-12.4,0.1-24.9,5.9-33.8,14.4c-11.3,10.8-17.7,25.7-16.5,41.4c2,26.5,22.7,47.3,49.2,49.3
		c13,1,25.6-2.9,36.2-10.4l1.7-1.2l1.7,1.2c3.2,2.2,6.4,3.7,10.1,4.5l0.2,0c7,1.9,13.4,2.7,20.7,3.1c15,0.8,30.2,0.3,45.3,0.3
		l-0.1-100.7c0-11.8,11.2-24.8,20.4-31.2l4.4-3.1l0.3,5.4c0.3,4.5-0.2,9,0.1,13.5l0,0.1l-0.1,120L474.3,370.1z M321.3,334.2
		c-6.5,9.5-21.2,10.1-28.4,1.2c-5-5.9-5.7-13.7-2.1-20.4c4.1-7.6,13.5-11.1,21.6-8.2C323.8,310.4,328.6,324.6,321.3,334.2z
		 M236.7,330.9c-15.4,6.3-31.6,9.6-48.3,8.7c-53.6-3-95.9-43.5-98.5-97.7c-2.3-48.1,29.5-91.4,75.8-103.9
		c22.6-6.1,48.5-3.6,70.1,5.8l-0.1-39.5c-39.4-11.7-79.3-8.5-114.7,13.1c-41.9,25.6-68,70.9-67.4,120.2
		c0.4,33.8,11.2,64.1,33.4,89.7c22.4,25.8,52.8,43.5,86.9,47.7c21.6,2.6,56.2,0.6,74.7-12.6L236.7,330.9z"/>
	<path class="st1" d="M740.1,214.3l-33.6-0.1l0.2,97.3c0,13.5-5.4,18.2-14.1,26.9l-5.2,5.1L687.3,214l-33.1,0.4l0.1,128.8
		c0,16.7,10.9,30.6,28,31.9c7.6,0.6,13.9-4.4,19-9.5l5.2-5.2l0,7.3c-0.2,6.3-0.4,12.5-0.5,18.8c0.1,11-1.3,28.5-10.1,47.3
		c-13.4,28.6-35.8,42.9-52.7,53.3c-42.4,26.2-85.8,29.3-109.7,29c-4-0.3-8-0.6-12-0.9c3.6-1.8,7.2-3.5,10.8-5.3
		c21.2-10.8,44.2-40.2,51.4-62.5c3.6-13,3.4-27.3-2.4-39.6c-1.3-2.7-8.5-15.7-22.7-19.4c-15.6-4-34,5-44.8,22.6
		c-1.1,2.1-2.1,4.2-3.2,6.3c-0.5-1.6-1.1-3.2-1.6-4.8c-1.2-3.4-4.3-10.6-11.5-16.3c-9.1-7.2-21.5-9.7-32.1-6.5
		c-17.5,5.4-23.7,24.7-24.7,27.6c-10,31.2,15.4,72.5,47.6,92c24.8,15,54,13.5,82.5,12.7c8.1-0.2,19.5-0.6,33.3-3.2
		c64.3-12.1,113-59.6,124.6-89.8c7-18.2,9.7-38.7,9.7-38.7c0.2-1.8,0.9-7,1.3-13.7C741.3,346.9,740.2,226.8,740.1,214.3z M509,507.6
		l-1.4,0.9l-1.6-0.7c-17-8.8-27.4-19.8-33-26.8c-5.2-6.5-23.4-29.5-18-52.9c1.9-8.1,5.5-11.5,6.6-12.6c7.7-7.9,19.4-7,28.9-3.3
		l0.1,0l0.1,0.1c8,4.1,14.1,7.8,19,14.8c9.5-10.8,23.9-19.4,38.6-16.9c6,1,11.5,4.7,14.9,9.8c5.1,7.7,4.7,17.2,2.3,25.8
		C558.5,471.5,530.2,493.7,509,507.6z"/>
</g>
<g>
	<linearGradient id="SVGID_1_" gradientUnits="userSpaceOnUse" x1="350.1659" y1="97.6971" x2="350.1659" y2="378.103">
		<stop  offset="0" style="stop-color:#FBE454"/>
		<stop  offset="0.1617" style="stop-color:#FBE055"/>
		<stop  offset="0.3053" style="stop-color:#FAD657"/>
		<stop  offset="0.442" style="stop-color:#F9C35A"/>
		<stop  offset="0.5745" style="stop-color:#F7AA5F"/>
		<stop  offset="0.7039" style="stop-color:#F58965"/>
		<stop  offset="0.8311" style="stop-color:#F2616D"/>
		<stop  offset="0.9541" style="stop-color:#EE3275"/>
		<stop  offset="1" style="stop-color:#ED1E79"/>
	</linearGradient>
	<path class="st2" d="M642.7,343.4c-5-0.5-10.6-2.2-11.8-7.6l-0.1-0.3l0.2-214.1l-33.3,26c0.1,20.3,0,40.7,0,61l0,4l-3.8-1
		c-18-4.9-41.8-2.1-58,7.3c-28.5,16.5-45,42.9-45.1,76c-0.1,29.2,13,53.8,37.7,69.2c22.3,13.8,58.8,19.4,80.9,2.6l1.9-1.4l1.8,1.5
		c8,6.4,22.5,9.9,33.5,10L642.7,343.4z M585,326.8l-1,0.6c-22.2,13.3-48.1-8.1-47-35.3c0.3-6.9,2.3-13.5,5.8-19.2
		c9.2-15.1,25.9-20.6,40.9-13.7l1.2,0.6V326.8z M474.3,370.1l0-126c0-13.1-4.9-32.4-20.8-33.5c-11-0.2-19.8,5.3-26.2,14l-5.4,7.4
		l-0.1-17.9c-11.1-0.1-22.2,0-33.3,0l-0.1,130.1l-1.6,0.8c-10.8,5.6-21.9,4.5-26.5-8.5L360,336l0.1-78.9c0-23.7-17.6-43.7-41.1-46.5
		c-23.5-2.8-44.6,12.2-50.8,34.6l31.9,8.8c1.6-5.7,6.3-10.1,12.5-10.4c7.7-0.3,14.1,5.6,14.5,13.3v0.1l-0.1,23.2l-4.7-3.2
		c-6.4-4.3-10.6-5.6-18.3-5.5c-12.4,0.1-24.9,5.9-33.8,14.4c-11.3,10.8-17.7,25.7-16.5,41.4c2,26.5,22.7,47.3,49.2,49.3
		c13,1,25.6-2.9,36.2-10.4l1.7-1.2l1.7,1.2c3.2,2.2,6.4,3.7,10.1,4.5l0.2,0c7,1.9,13.4,2.7,20.7,3.1c15,0.8,30.2,0.3,45.3,0.3
		l-0.1-100.7c0-11.8,11.2-24.8,20.4-31.2l4.4-3.1l0.3,5.4c0.3,4.5-0.2,9,0.1,13.5l0,0.1l-0.1,120L474.3,370.1z M321.3,334.2
		c-6.5,9.5-21.2,10.1-28.4,1.2c-5-5.9-5.7-13.7-2.1-20.4c4.1-7.6,13.5-11.1,21.6-8.2C323.8,310.4,328.6,324.6,321.3,334.2z
		 M236.7,330.9c-15.4,6.3-31.6,9.6-48.3,8.7c-53.6-3-95.9-43.5-98.5-97.7c-2.3-48.1,29.5-91.4,75.8-103.9
		c22.6-6.1,48.5-3.6,70.1,5.8l-0.1-39.5c-39.4-11.7-79.3-8.5-114.7,13.1c-41.9,25.6-68,70.9-67.4,120.2
		c0.4,33.8,11.2,64.1,33.4,89.7c22.4,25.8,52.8,43.5,86.9,47.7c21.6,2.6,56.2,0.6,74.7-12.6L236.7,330.9z"/>
	<linearGradient id="SVGID_2_" gradientUnits="userSpaceOnUse" x1="589.5031" y1="214.0321" x2="589.5031" y2="712.9514">
		<stop  offset="0" style="stop-color:#FBE654"/>
		<stop  offset="0.1177" style="stop-color:#F6A161"/>
		<stop  offset="0.3259" style="stop-color:#ED1E79"/>
		<stop  offset="0.3615" style="stop-color:#EE2A77"/>
		<stop  offset="0.4262" style="stop-color:#F04A71"/>
		<stop  offset="0.5127" style="stop-color:#F47F67"/>
		<stop  offset="0.6164" style="stop-color:#F9C65A"/>
		<stop  offset="0.6592" style="stop-color:#FBE654"/>
		<stop  offset="0.6979" style="stop-color:#FBE155"/>
		<stop  offset="0.7468" style="stop-color:#FAD158"/>
		<stop  offset="0.8012" style="stop-color:#F8B75D"/>
		<stop  offset="0.8596" style="stop-color:#F59363"/>
		<stop  offset="0.9212" style="stop-color:#F2656C"/>
		<stop  offset="0.9846" style="stop-color:#EE2D76"/>
		<stop  offset="1" style="stop-color:#ED1E79"/>
	</linearGradient>
	<path class="st3" d="M740.1,214.3l-33.6-0.1l0.2,97.3c0,13.5-5.4,18.2-14.1,26.9l-5.2,5.1L687.3,214l-33.1,0.4l0.1,128.8
		c0,16.7,10.9,30.6,28,31.9c7.6,0.6,13.9-4.4,19-9.5l5.2-5.2l0,7.3c-0.2,6.3-0.4,12.5-0.5,18.8c0.1,11-1.3,28.5-10.1,47.3
		c-13.4,28.6-35.8,42.9-52.7,53.3c-42.4,26.2-85.8,29.3-109.7,29c-4-0.3-8-0.6-12-0.9c3.6-1.8,7.2-3.5,10.8-5.3
		c21.2-10.8,44.2-40.2,51.4-62.5c3.6-13,3.4-27.3-2.4-39.6c-1.3-2.7-8.5-15.7-22.7-19.4c-15.6-4-34,5-44.8,22.6
		c-1.1,2.1-2.1,4.2-3.2,6.3c-0.5-1.6-1.1-3.2-1.6-4.8c-1.2-3.4-4.3-10.6-11.5-16.3c-9.1-7.2-21.5-9.7-32.1-6.5
		c-17.5,5.4-23.7,24.7-24.7,27.6c-10,31.2,15.4,72.5,47.6,92c24.8,15,54,13.5,82.5,12.7c8.1-0.2,19.5-0.6,33.3-3.2
		c64.3-12.1,113-59.6,124.6-89.8c7-18.2,9.7-38.7,9.7-38.7c0.2-1.8,0.9-7,1.3-13.7C741.3,346.9,740.2,226.8,740.1,214.3z M509,507.6
		l-1.4,0.9l-1.6-0.7c-17-8.8-27.4-19.8-33-26.8c-5.2-6.5-23.4-29.5-18-52.9c1.9-8.1,5.5-11.5,6.6-12.6c7.7-7.9,19.4-7,28.9-3.3
		l0.1,0l0.1,0.1c8,4.1,14.1,7.8,19,14.8c9.5-10.8,23.9-19.4,38.6-16.9c6,1,11.5,4.7,14.9,9.8c5.1,7.7,4.7,17.2,2.3,25.8
		C558.5,471.5,530.2,493.7,509,507.6z"/>
</g>
<rect x="793.5" y="84.6" class="st4" width="152.8" height="450.7"/>
<path class="st5" d="M871.9,104c0.2-3.1,0-7.8-1.8-12.9c-3.8-10.6-12.3-16.1-16.4-18.6c-17.9-11.4-45.8-8-58.7-3.6
	c-37.2,12.5-62.1,69.9-60,142.2"/>
<rect x="807.9" y="98.5" class="st5" width="124.2" height="424.3"/>
<g>
	<path class="st6" d="M899.7,194.2c-2.3,3.6-5.6,6.4-10,8.4c-4.4,2.1-9.5,3.1-15.6,3.1c-9.2,0-16.8-2.2-22.8-6.5
		c-6-4.3-9.2-10.6-9.7-19h25.7c0.4,4.4,2.3,6.6,5.9,6.6c1.2,0,2.2-0.3,3-1c0.8-0.7,1.1-1.6,1.1-2.8c0-1.8-0.9-3.2-2.8-4.3
		c-1.8-1.1-4.8-2.3-9-3.6c-4.9-1.6-8.9-3.2-12.1-4.9c-3.2-1.7-6-4.1-8.4-7.4c-2.4-3.3-3.6-7.5-3.6-12.7c0-5,1.3-9.3,3.9-12.8
		c2.6-3.5,6.1-6.2,10.5-8c4.5-1.8,9.5-2.7,15.1-2.7c9.2,0,16.5,2.1,22,6.4c5.4,4.3,8.4,10.4,8.9,18.5h-26c-0.4-4.1-2-6.1-5-6.1
		c-1,0-1.8,0.3-2.5,0.9c-0.7,0.6-1,1.5-1,2.8c0,1.7,0.9,3,2.8,4.1c1.8,1.1,4.7,2.3,8.6,3.6c4.9,1.7,9,3.5,12.2,5.2
		c3.2,1.7,6.1,4.2,8.5,7.5c2.4,3.3,3.6,7.5,3.6,12.7C903.1,186.6,901.9,190.6,899.7,194.2z"/>
	<path class="st6" d="M907.8,230.3v77h-24.1v-30h-22.9v30h-24.1v-77h24.1V258h22.9v-27.7H907.8z"/>
	<path class="st6" d="M892.2,336.4c6,3.4,10.8,8.1,14.3,14.1c3.5,6,5.3,12.8,5.3,20.3c0,7.5-1.8,14.3-5.3,20.3
		c-3.5,6-8.3,10.7-14.4,14.1c-6.1,3.4-12.7,5.1-19.8,5.1c-7.3,0-13.9-1.7-20-5.1c-6.1-3.4-10.9-8.1-14.4-14.1
		c-3.6-6-5.3-12.8-5.3-20.3c0-7.5,1.8-14.3,5.3-20.3c3.6-6,8.4-10.7,14.4-14.1c6.1-3.4,12.7-5.1,20-5.1
		C879.5,331.3,886.1,333,892.2,336.4z M861.1,358.2c-2.6,3.1-3.9,7.3-3.9,12.6c0,5.2,1.3,9.4,3.9,12.5c2.6,3.1,6.3,4.6,11.2,4.6
		c4.8,0,8.5-1.5,11.1-4.6c2.6-3.1,3.9-7.2,3.9-12.5c0-5.3-1.3-9.5-3.9-12.6c-2.6-3.1-6.3-4.6-11.1-4.6
		C867.4,353.6,863.7,355.1,861.1,358.2z"/>
	<path class="st6" d="M866.4,487.4v24.5h-24.1v-77H876c9.4,0,16.7,2.4,21.7,7.2c5,4.8,7.6,11.2,7.6,19.2c0,4.9-1.1,9.3-3.4,13.2
		c-2.2,4-5.6,7.1-10,9.4c-4.4,2.3-9.7,3.5-15.9,3.5H866.4z M880.8,461.3c0-4.7-2.5-7.1-7.5-7.1h-6.9v14.1h6.9
		C878.3,468.4,880.8,466.1,880.8,461.3z"/>
</g>
<circle class="st7" cx="871.6" cy="110.9" r="8"/>
<g>
</g>
<g>
</g>
<g>
</g>
<g>
</g>
<g>
</g>
<g>
</g>
</svg>
