<?xml version="1.0" encoding="utf-8"?>
<!-- Generator: Adobe Illustrator 21.0.0, SVG Export Plug-In . SVG Version: 6.00 Build 0)  -->
<svg version="1.1" id="Capa_1" xmlns="http://www.w3.org/2000/svg" xmlns:xlink="http://www.w3.org/1999/xlink" x="0px" y="0px"
	 viewBox="0 0 533.1 533.1" style="enable-background:new 0 0 533.1 533.1;" xml:space="preserve">
<style type="text/css">
	.st0{fill-rule:evenodd;clip-rule:evenodd;fill:none;stroke:#6A00BF;stroke-width:16;stroke-miterlimit:10;}
	.st1{fill-rule:evenodd;clip-rule:evenodd;fill:none;stroke:#ED1E79;stroke-width:7;stroke-miterlimit:10;}
	.st2{fill-rule:evenodd;clip-rule:evenodd;fill:url(#SVGID_1_);}
	.st3{fill-rule:evenodd;clip-rule:evenodd;fill:url(#SVGID_2_);}
	.st4{fill-rule:evenodd;clip-rule:evenodd;fill:none;stroke:#1B1464;stroke-width:16;stroke-miterlimit:10;}
	.st5{fill-rule:evenodd;clip-rule:evenodd;fill:none;stroke:#9E005D;stroke-width:7;stroke-miterlimit:10;}
	.st6{fill-rule:evenodd;clip-rule:evenodd;fill:url(#SVGID_3_);}
	.st7{fill-rule:evenodd;clip-rule:evenodd;fill:url(#SVGID_4_);}
	.st8{fill-rule:evenodd;clip-rule:evenodd;fill:none;stroke:#662D91;stroke-width:16;stroke-miterlimit:10;}
	.st9{fill-rule:evenodd;clip-rule:evenodd;fill:none;stroke:#C59ED4;stroke-width:6;stroke-miterlimit:10;}
	.st10{fill-rule:evenodd;clip-rule:evenodd;fill:url(#SVGID_5_);}
	.st11{fill-rule:evenodd;clip-rule:evenodd;fill:url(#SVGID_6_);}
</style>
<g>
	<g>
		<path class="st0" d="M449.6,378.3c-0.7-1.2-12.1-19.2-32.8-19.7c-10-0.2-17.6,3.8-21.1,5.9l-1.1,0.8l-1.1-0.8
			c-4.6-3.7-12.9-5.7-19.2-5.8l2.3,18.9c2.9,0.3,6.1,1.3,6.8,4.4l0,0.2l-0.1,123.1l19.1-15c0.1-7.5,0.1-15.2,0-23.1
			c-0.1-7.5-0.3-14.8-0.6-22c6,4.6,11.3,5.8,14.3,6.1c16.8,1.7,31.7-15,36.8-29.3c2.6-7.1,2.6-13.4,2.6-17.2
			C455.6,398.6,455.6,388.3,449.6,378.3z M433.9,407.2c-0.2,3.7-1.3,7.3-3.1,10.4c-4.9,8.2-13.8,11.1-21.9,7.4l-0.7-0.3l0-36.3
			l0.5-0.3C420.7,380.9,434.5,392.4,433.9,407.2z M370.2,381c-6.3-15.8-17.6-22-19.9-23.2c-2-1-16.5-8.2-31.7,1.2
			c-11.4,7.1-16.4,19.4-18.1,23.6c-2.8,7.2-4.4,15.4-4.4,24.3c0,10.1,1.9,19.3,5.7,27.1c4.4,9,10,14.1,13.1,16.5
			c11.2,8.6,29.1,9.1,40.3,1.6c1.7-1.1,2.7-2.1,3.9-3.2c13.3-12.6,14.3-30.5,14.8-38.7C374.5,402.1,374.8,392.5,370.2,381z
			 M349,407.7c-0.1,2.1-0.4,6-2.4,10c-0.5,1-1.8,3.4-4.2,5.3c-4.5,3.4-10.3,2.5-14.3-0.6c-1.1-0.8-3.1-2.7-4.6-6
			c-1.4-2.9-2-6.2-2-9.9c0-3.2,0.6-6.2,1.6-8.8c0.6-1.5,2.4-6,6.4-8.6c5.4-3.4,10.5-0.8,11.2-0.4c0.8,0.4,4.8,2.7,7.1,8.4
			C349.3,401.4,349.1,405.4,349,407.7z M402.4,210.9c-3.2-0.3-6.7-1.4-7.4-4.8l0-0.2l0.1-135l-21,16.4c0.1,12.8,0,25.6,0,38.5l0,2.5
			l-2.4-0.7c-11.3-3.1-26.4-1.3-36.5,4.6c-18,10.4-28.4,27-28.4,47.9c-0.1,18.4,8.2,33.9,23.8,43.6c14,8.7,37,12.2,51,1.6l1.2-0.9
			l1.2,0.9c5.1,4,14.2,6.2,21.1,6.3L402.4,210.9z M366,200.4l-0.6,0.4c-14,8.4-30.3-5.1-29.6-22.3c0.2-4.3,1.5-8.5,3.7-12.1
			c5.8-9.5,16.3-13,25.8-8.7l0.8,0.4V200.4z M296.2,227.7l0-79.4c0-8.3-3.1-20.4-13.1-21.1c-6.9-0.1-12.5,3.3-16.5,8.8l-3.4,4.7
			l-0.1-11.3c-7-0.1-14,0-21,0l0,82l-1,0.5c-6.8,3.5-13.8,2.9-16.7-5.3l-0.1-0.3l0.1-49.8c0-14.9-11.1-27.6-25.9-29.3
			c-14.8-1.8-28.1,7.7-32,21.8l20.1,5.6c1-3.6,3.9-6.4,7.9-6.5c4.9-0.2,8.9,3.6,9.1,8.4v0.1l0,14.6l-3-2c-4.1-2.7-6.7-3.5-11.5-3.5
			c-7.8,0.1-15.7,3.7-21.3,9c-7.1,6.8-11.2,16.2-10.4,26.1c1.3,16.7,14.3,29.8,31,31.1c8.2,0.6,16.2-1.9,22.8-6.6l1.1-0.8l1.1,0.8
			c2,1.4,4,2.3,6.4,2.9l0.1,0c4.4,1.2,8.4,1.7,13,1.9c9.4,0.5,19.1,0.2,28.5,0.2l-0.1-63.5c0-7.4,7-15.6,12.8-19.7l2.8-2l0.2,3.4
			c0.2,2.8-0.1,5.7,0.1,8.5l0,0.1l-0.1,75.7L296.2,227.7z M199.8,205.1c-4.1,6-13.4,6.4-17.9,0.8c-3.1-3.7-3.6-8.6-1.3-12.9
			c2.6-4.8,8.5-7,13.6-5.2C201.4,190.1,204.4,199,199.8,205.1z M146.5,203c-9.7,4-19.9,6.1-30.5,5.5c-33.8-1.9-60.4-27.4-62.1-61.6
			c-1.4-30.3,18.6-57.6,47.8-65.5c14.3-3.8,30.6-2.3,44.2,3.7l-0.1-24.9c-24.8-7.3-50-5.4-72.3,8.3c-26.4,16.1-42.9,44.7-42.5,75.8
			c0.3,21.3,7.1,40.4,21,56.5c14.1,16.3,33.3,27.5,54.8,30.1c13.6,1.7,35.4,0.4,47.1-7.9L146.5,203z"/>
		<path class="st0" d="M463.8,129.5l-21.2-0.1l0.1,61.4c0,8.5-3.4,11.5-8.9,17l-3.3,3.2l-0.1-81.6l-20.9,0.2l0,81.2
			c0,10.5,6.9,19.3,17.7,20.1c4.8,0.4,8.8-2.8,12-6l3.3-3.3l0,4.6c-0.1,4-0.2,7.9-0.3,11.8c0,6.9-0.8,18-6.4,29.8
			c-8.4,18-22.6,27-33.3,33.6c-26.7,16.5-54.1,18.5-69.1,18.3L331,321l-0.1-1.3l-5-0.4l4.9-2.4l-0.1-1.1l2,0.2
			c13.4-6.8,27.9-25.3,32.4-39.4c2.2-8.2,2.1-17.2-1.5-24.9c-2.8-5.9-7.8-10.9-14.3-12.2c-11-2.1-23.2,6.8-28.6,15.8l-2.3,3.8
			l-1.2-4.2c-3.6-12.6-14.6-16.7-26.6-14.4c-13.7,3.8-20.5,17.5-18.2,31.1c2.8,15.9,19.8,35.4,33.2,43.8l4.1,2.5l-4.7,0.9
			c-5.7,0.5-14,0.7-23.5-1.7c-10-2.5-16-6.5-21.4-9.5c-17.1-9.6-37.1-14.4-52.8-14.7c-9.9-0.2-34.3-0.5-46.7,16
			c-4.5,6-8.3,15.5-7,26c3.5,28.8,41.7,34.8,50,67c2.5,9.6,1,16.4-0.7,20.7c-1,2.6-4.7,12-13.7,14.3c-6.6,1.7-12.5-1.5-15.1-2.9
			c-7.2-4-10.4-10.2-11.5-12.7c-4.5,3.2-9.1,6.4-13.6,9.6c1.4,3.4,4.2,9.2,9.9,14.4c10.6,9.6,27.3,13.6,41.7,7.7
			c10.6-4.3,16-12.4,17.7-15c8-12.3,6.8-25.3,6.3-29.7c-2.3-20.9-17.6-36.3-26.7-45.3c-10.5-10.5-19.8-13.8-22.3-25
			c-0.2-1-1.9-9,1.4-15.6c6.3-12.6,29.9-17.8,57.6-9.7c0.2,47.6,0.4,95.1,0.7,142.7l20.2,0l0.1-66.2l0.1-0.3
			c2.6-6.7,6.5-12.7,12.8-16.4l2.9-1.7l0,3.4c-0.1,13.6-0.1,27.2-0.1,40.9c0,13.4,0,26.8,0.1,40.2c6.1,0,12.3,0,18.4,0.1
			c-0.1-14.8-0.2-29.7-0.3-44.5c-0.1-13.4-0.1-26.9-0.1-40.3c-1.2-8.8-7.1-17.5-16.8-17.4c-5.7,0.4-9.6,4.3-12.8,8.7l-3.4,4.8
			c-0.1-14.8-0.2-29.6-0.2-44.5c1.2,0.5,5.9,2.4,9.9,3.7c11.7,3.8,29.5,6.9,54.6,2.3l0.5-0.2l0.6,0.1c12.8,3.3,25.9,4.2,39.1,3
			c43.7-4,70.1-27.9,70.1-27.9c6-5.8,18.7-19,25.9-37.7c4.3-11.2,5.8-22.2,6.1-24.4c0.8-6.4,0.9-11.2,1-13.5
			C463.9,213.2,464,177.3,463.8,129.5z M318.1,314.4l-0.9,0.6l-1-0.5c-16-7.8-28.7-23.7-32.4-41.1l0-0.1c-0.9-5.8,0.2-12.7,4.5-17
			c4.9-5,12.2-4.4,18.2-2.1l0.1,0l0.1,0c5,2.6,8.9,4.9,12,9.3c6-6.8,15.1-12.2,24.3-10.7c3.8,0.7,7.3,3,9.4,6.2
			c3.2,4.9,3,10.9,1.5,16.3C349.3,291.6,331.5,305.6,318.1,314.4z"/>
	</g>
	<g>
		<path class="st1" d="M449.6,378.3c-0.7-1.2-12.1-19.2-32.8-19.7c-10-0.2-17.6,3.8-21.1,5.9l-1.1,0.8l-1.1-0.8
			c-4.6-3.7-12.9-5.7-19.2-5.8l2.3,18.9c2.9,0.3,6.1,1.3,6.8,4.4l0,0.2l-0.1,123.1l19.1-15c0.1-7.5,0.1-15.2,0-23.1
			c-0.1-7.5-0.3-14.8-0.6-22c6,4.6,11.3,5.8,14.3,6.1c16.8,1.7,31.7-15,36.8-29.3c2.6-7.1,2.6-13.4,2.6-17.2
			C455.6,398.6,455.6,388.3,449.6,378.3z M433.9,407.2c-0.2,3.7-1.3,7.3-3.1,10.4c-4.9,8.2-13.8,11.1-21.9,7.4l-0.7-0.3l0-36.3
			l0.5-0.3C420.7,380.9,434.5,392.4,433.9,407.2z M370.2,381c-6.3-15.8-17.6-22-19.9-23.2c-2-1-16.5-8.2-31.7,1.2
			c-11.4,7.1-16.4,19.4-18.1,23.6c-2.8,7.2-4.4,15.4-4.4,24.3c0,10.1,1.9,19.3,5.7,27.1c4.4,9,10,14.1,13.1,16.5
			c11.2,8.6,29.1,9.1,40.3,1.6c1.7-1.1,2.7-2.1,3.9-3.2c13.3-12.6,14.3-30.5,14.8-38.7C374.5,402.1,374.8,392.5,370.2,381z
			 M349,407.7c-0.1,2.1-0.4,6-2.4,10c-0.5,1-1.8,3.4-4.2,5.3c-4.5,3.4-10.3,2.5-14.3-0.6c-1.1-0.8-3.1-2.7-4.6-6
			c-1.4-2.9-2-6.2-2-9.9c0-3.2,0.6-6.2,1.6-8.8c0.6-1.5,2.4-6,6.4-8.6c5.4-3.4,10.5-0.8,11.2-0.4c0.8,0.4,4.8,2.7,7.1,8.4
			C349.3,401.4,349.1,405.4,349,407.7z M402.4,210.9c-3.2-0.3-6.7-1.4-7.4-4.8l0-0.2l0.1-135l-21,16.4c0.1,12.8,0,25.6,0,38.5l0,2.5
			l-2.4-0.7c-11.3-3.1-26.4-1.3-36.5,4.6c-18,10.4-28.4,27-28.4,47.9c-0.1,18.4,8.2,33.9,23.8,43.6c14,8.7,37,12.2,51,1.6l1.2-0.9
			l1.2,0.9c5.1,4,14.2,6.2,21.1,6.3L402.4,210.9z M366,200.4l-0.6,0.4c-14,8.4-30.3-5.1-29.6-22.3c0.2-4.3,1.5-8.5,3.7-12.1
			c5.8-9.5,16.3-13,25.8-8.7l0.8,0.4V200.4z M296.2,227.7l0-79.4c0-8.3-3.1-20.4-13.1-21.1c-6.9-0.1-12.5,3.3-16.5,8.8l-3.4,4.7
			l-0.1-11.3c-7-0.1-14,0-21,0l0,82l-1,0.5c-6.8,3.5-13.8,2.9-16.7-5.3l-0.1-0.3l0.1-49.8c0-14.9-11.1-27.6-25.9-29.3
			c-14.8-1.8-28.1,7.7-32,21.8l20.1,5.6c1-3.6,3.9-6.4,7.9-6.5c4.9-0.2,8.9,3.6,9.1,8.4v0.1l0,14.6l-3-2c-4.1-2.7-6.7-3.5-11.5-3.5
			c-7.8,0.1-15.7,3.7-21.3,9c-7.1,6.8-11.2,16.2-10.4,26.1c1.3,16.7,14.3,29.8,31,31.1c8.2,0.6,16.2-1.9,22.8-6.6l1.1-0.8l1.1,0.8
			c2,1.4,4,2.3,6.4,2.9l0.1,0c4.4,1.2,8.4,1.7,13,1.9c9.4,0.5,19.1,0.2,28.5,0.2l-0.1-63.5c0-7.4,7-15.6,12.8-19.7l2.8-2l0.2,3.4
			c0.2,2.8-0.1,5.7,0.1,8.5l0,0.1l-0.1,75.7L296.2,227.7z M199.8,205.1c-4.1,6-13.4,6.4-17.9,0.8c-3.1-3.7-3.6-8.6-1.3-12.9
			c2.6-4.8,8.5-7,13.6-5.2C201.4,190.1,204.4,199,199.8,205.1z M146.5,203c-9.7,4-19.9,6.1-30.5,5.5c-33.8-1.9-60.4-27.4-62.1-61.6
			c-1.4-30.3,18.6-57.6,47.8-65.5c14.3-3.8,30.6-2.3,44.2,3.7l-0.1-24.9c-24.8-7.3-50-5.4-72.3,8.3c-26.4,16.1-42.9,44.7-42.5,75.8
			c0.3,21.3,7.1,40.4,21,56.5c14.1,16.3,33.3,27.5,54.8,30.1c13.6,1.7,35.4,0.4,47.1-7.9L146.5,203z"/>
		<path class="st1" d="M463.8,129.5l-21.2-0.1l0.1,61.4c0,8.5-3.4,11.5-8.9,17l-3.3,3.2l-0.1-81.6l-20.9,0.2l0,81.2
			c0,10.5,6.9,19.3,17.7,20.1c4.8,0.4,8.8-2.8,12-6l3.3-3.3l0,4.6c-0.1,4-0.2,7.9-0.3,11.8c0,6.9-0.8,18-6.4,29.8
			c-8.4,18-22.6,27-33.3,33.6c-26.7,16.5-54.1,18.5-69.1,18.3L331,321l-0.1-1.3l-5-0.4l4.9-2.4l-0.1-1.1l2,0.2
			c13.4-6.8,27.9-25.3,32.4-39.4c2.2-8.2,2.1-17.2-1.5-24.9c-2.8-5.9-7.8-10.9-14.3-12.2c-11-2.1-23.2,6.8-28.6,15.8l-2.3,3.8
			l-1.2-4.2c-3.6-12.6-14.6-16.7-26.6-14.4c-13.7,3.8-20.5,17.5-18.2,31.1c2.8,15.9,19.8,35.4,33.2,43.8l4.1,2.5l-4.7,0.9
			c-5.7,0.5-14,0.7-23.5-1.7c-10-2.5-16-6.5-21.4-9.5c-17.1-9.6-37.1-14.4-52.8-14.7c-9.9-0.2-34.3-0.5-46.7,16
			c-4.5,6-8.3,15.5-7,26c3.5,28.8,41.7,34.8,50,67c2.5,9.6,1,16.4-0.7,20.7c-1,2.6-4.7,12-13.7,14.3c-6.6,1.7-12.5-1.5-15.1-2.9
			c-7.2-4-10.4-10.2-11.5-12.7c-4.5,3.2-9.1,6.4-13.6,9.6c1.4,3.4,4.2,9.2,9.9,14.4c10.6,9.6,27.3,13.6,41.7,7.7
			c10.6-4.3,16-12.4,17.7-15c8-12.3,6.8-25.3,6.3-29.7c-2.3-20.9-17.6-36.3-26.7-45.3c-10.5-10.5-19.8-13.8-22.3-25
			c-0.2-1-1.9-9,1.4-15.6c6.3-12.6,29.9-17.8,57.6-9.7c0.2,47.6,0.4,95.1,0.7,142.7l20.2,0l0.1-66.2l0.1-0.3
			c2.6-6.7,6.5-12.7,12.8-16.4l2.9-1.7l0,3.4c-0.1,13.6-0.1,27.2-0.1,40.9c0,13.4,0,26.8,0.1,40.2c6.1,0,12.3,0,18.4,0.1
			c-0.1-14.8-0.2-29.7-0.3-44.5c-0.1-13.4-0.1-26.9-0.1-40.3c-1.2-8.8-7.1-17.5-16.8-17.4c-5.7,0.4-9.6,4.3-12.8,8.7l-3.4,4.8
			c-0.1-14.8-0.2-29.6-0.2-44.5c1.2,0.5,5.9,2.4,9.9,3.7c11.7,3.8,29.5,6.9,54.6,2.3l0.5-0.2l0.6,0.1c12.8,3.3,25.9,4.2,39.1,3
			c43.7-4,70.1-27.9,70.1-27.9c6-5.8,18.7-19,25.9-37.7c4.3-11.2,5.8-22.2,6.1-24.4c0.8-6.4,0.9-11.2,1-13.5
			C463.9,213.2,464,177.3,463.8,129.5z M318.1,314.4l-0.9,0.6l-1-0.5c-16-7.8-28.7-23.7-32.4-41.1l0-0.1c-0.9-5.8,0.2-12.7,4.5-17
			c4.9-5,12.2-4.4,18.2-2.1l0.1,0l0.1,0c5,2.6,8.9,4.9,12,9.3c6-6.8,15.1-12.2,24.3-10.7c3.8,0.7,7.3,3,9.4,6.2
			c3.2,4.9,3,10.9,1.5,16.3C349.3,291.6,331.5,305.6,318.1,314.4z"/>
	</g>
	<g>
		<linearGradient id="SVGID_1_" gradientUnits="userSpaceOnUse" x1="243.3191" y1="56" x2="243.3191" y2="505.4204">
			<stop  offset="0" style="stop-color:#FBE654"/>
			<stop  offset="7.894910e-02" style="stop-color:#FBE355"/>
			<stop  offset="0.1444" style="stop-color:#FAD857"/>
			<stop  offset="0.2049" style="stop-color:#F9C75A"/>
			<stop  offset="0.2625" style="stop-color:#F7AF5E"/>
			<stop  offset="0.3182" style="stop-color:#F58F64"/>
			<stop  offset="0.3722" style="stop-color:#F2696B"/>
			<stop  offset="0.4241" style="stop-color:#EF3C73"/>
			<stop  offset="0.4546" style="stop-color:#ED1E79"/>
			<stop  offset="0.4847" style="stop-color:#F04272"/>
			<stop  offset="0.5467" style="stop-color:#F48865"/>
			<stop  offset="0.5986" style="stop-color:#F8BB5C"/>
			<stop  offset="0.6376" style="stop-color:#FADA56"/>
			<stop  offset="0.6592" style="stop-color:#FBE654"/>
			<stop  offset="0.6851" style="stop-color:#FADE56"/>
			<stop  offset="0.7258" style="stop-color:#F9C75A"/>
			<stop  offset="0.7763" style="stop-color:#F6A360"/>
			<stop  offset="0.8344" style="stop-color:#F3706A"/>
			<stop  offset="0.8984" style="stop-color:#EE2F76"/>
			<stop  offset="0.9142" style="stop-color:#ED1E79"/>
			<stop  offset="1" style="stop-color:#ED1E79"/>
		</linearGradient>
		<path class="st2" d="M449.6,378.3c-0.7-1.2-12.1-19.2-32.8-19.7c-10-0.2-17.6,3.8-21.1,5.9l-1.1,0.8l-1.1-0.8
			c-4.6-3.7-12.9-5.7-19.2-5.8l2.3,18.9c2.9,0.3,6.1,1.3,6.8,4.4l0,0.2l-0.1,123.1l19.1-15c0.1-7.5,0.1-15.2,0-23.1
			c-0.1-7.5-0.3-14.8-0.6-22c6,4.6,11.3,5.8,14.3,6.1c16.8,1.7,31.7-15,36.8-29.3c2.6-7.1,2.6-13.4,2.6-17.2
			C455.6,398.6,455.6,388.3,449.6,378.3z M433.9,407.2c-0.2,3.7-1.3,7.3-3.1,10.4c-4.9,8.2-13.8,11.1-21.9,7.4l-0.7-0.3l0-36.3
			l0.5-0.3C420.7,380.9,434.5,392.4,433.9,407.2z M370.2,381c-6.3-15.8-17.6-22-19.9-23.2c-2-1-16.5-8.2-31.7,1.2
			c-11.4,7.1-16.4,19.4-18.1,23.6c-2.8,7.2-4.4,15.4-4.4,24.3c0,10.1,1.9,19.3,5.7,27.1c4.4,9,10,14.1,13.1,16.5
			c11.2,8.6,29.1,9.1,40.3,1.6c1.7-1.1,2.7-2.1,3.9-3.2c13.3-12.6,14.3-30.5,14.8-38.7C374.5,402.1,374.8,392.5,370.2,381z
			 M349,407.7c-0.1,2.1-0.4,6-2.4,10c-0.5,1-1.8,3.4-4.2,5.3c-4.5,3.4-10.3,2.5-14.3-0.6c-1.1-0.8-3.1-2.7-4.6-6
			c-1.4-2.9-2-6.2-2-9.9c0-3.2,0.6-6.2,1.6-8.8c0.6-1.5,2.4-6,6.4-8.6c5.4-3.4,10.5-0.8,11.2-0.4c0.8,0.4,4.8,2.7,7.1,8.4
			C349.3,401.4,349.1,405.4,349,407.7z M402.4,210.9c-3.2-0.3-6.7-1.4-7.4-4.8l0-0.2l0.1-135l-21,16.4c0.1,12.8,0,25.6,0,38.5l0,2.5
			l-2.4-0.7c-11.3-3.1-26.4-1.3-36.5,4.6c-18,10.4-28.4,27-28.4,47.9c-0.1,18.4,8.2,33.9,23.8,43.6c14,8.7,37,12.2,51,1.6l1.2-0.9
			l1.2,0.9c5.1,4,14.2,6.2,21.1,6.3L402.4,210.9z M366,200.4l-0.6,0.4c-14,8.4-30.3-5.1-29.6-22.3c0.2-4.3,1.5-8.5,3.7-12.1
			c5.8-9.5,16.3-13,25.8-8.7l0.8,0.4V200.4z M296.2,227.7l0-79.4c0-8.3-3.1-20.4-13.1-21.1c-6.9-0.1-12.5,3.3-16.5,8.8l-3.4,4.7
			l-0.1-11.3c-7-0.1-14,0-21,0l0,82l-1,0.5c-6.8,3.5-13.8,2.9-16.7-5.3l-0.1-0.3l0.1-49.8c0-14.9-11.1-27.6-25.9-29.3
			c-14.8-1.8-28.1,7.7-32,21.8l20.1,5.6c1-3.6,3.9-6.4,7.9-6.5c4.9-0.2,8.9,3.6,9.1,8.4v0.1l0,14.6l-3-2c-4.1-2.7-6.7-3.5-11.5-3.5
			c-7.8,0.1-15.7,3.7-21.3,9c-7.1,6.8-11.2,16.2-10.4,26.1c1.3,16.7,14.3,29.8,31,31.1c8.2,0.6,16.2-1.9,22.8-6.6l1.1-0.8l1.1,0.8
			c2,1.4,4,2.3,6.4,2.9l0.1,0c4.4,1.2,8.4,1.7,13,1.9c9.4,0.5,19.1,0.2,28.5,0.2l-0.1-63.5c0-7.4,7-15.6,12.8-19.7l2.8-2l0.2,3.4
			c0.2,2.8-0.1,5.7,0.1,8.5l0,0.1l-0.1,75.7L296.2,227.7z M199.8,205.1c-4.1,6-13.4,6.4-17.9,0.8c-3.1-3.7-3.6-8.6-1.3-12.9
			c2.6-4.8,8.5-7,13.6-5.2C201.4,190.1,204.4,199,199.8,205.1z M146.5,203c-9.7,4-19.9,6.1-30.5,5.5c-33.8-1.9-60.4-27.4-62.1-61.6
			c-1.4-30.3,18.6-57.6,47.8-65.5c14.3-3.8,30.6-2.3,44.2,3.7l-0.1-24.9c-24.8-7.3-50-5.4-72.3,8.3c-26.4,16.1-42.9,44.7-42.5,75.8
			c0.3,21.3,7.1,40.4,21,56.5c14.1,16.3,33.3,27.5,54.8,30.1c13.6,1.7,35.4,0.4,47.1-7.9L146.5,203z"/>
		<linearGradient id="SVGID_2_" gradientUnits="userSpaceOnUse" x1="306.4688" y1="129.3304" x2="306.4688" y2="455.4568">
			<stop  offset="0" style="stop-color:#FBE654"/>
			<stop  offset="7.894910e-02" style="stop-color:#FBE355"/>
			<stop  offset="0.1444" style="stop-color:#FAD857"/>
			<stop  offset="0.2049" style="stop-color:#F9C75A"/>
			<stop  offset="0.2625" style="stop-color:#F7AF5E"/>
			<stop  offset="0.3182" style="stop-color:#F58F64"/>
			<stop  offset="0.3722" style="stop-color:#F2696B"/>
			<stop  offset="0.4241" style="stop-color:#EF3C73"/>
			<stop  offset="0.4546" style="stop-color:#ED1E79"/>
			<stop  offset="0.4847" style="stop-color:#F04272"/>
			<stop  offset="0.5467" style="stop-color:#F48865"/>
			<stop  offset="0.5986" style="stop-color:#F8BB5C"/>
			<stop  offset="0.6376" style="stop-color:#FADA56"/>
			<stop  offset="0.6592" style="stop-color:#FBE654"/>
			<stop  offset="0.6979" style="stop-color:#FBE155"/>
			<stop  offset="0.7468" style="stop-color:#FAD158"/>
			<stop  offset="0.8012" style="stop-color:#F8B75D"/>
			<stop  offset="0.8596" style="stop-color:#F59363"/>
			<stop  offset="0.9212" style="stop-color:#F2656C"/>
			<stop  offset="0.9846" style="stop-color:#EE2D76"/>
			<stop  offset="1" style="stop-color:#ED1E79"/>
		</linearGradient>
		<path class="st3" d="M463.8,129.5l-21.2-0.1l0.1,61.4c0,8.5-3.4,11.5-8.9,17l-3.3,3.2l-0.1-81.6l-20.9,0.2l0,81.2
			c0,10.5,6.9,19.3,17.7,20.1c4.8,0.4,8.8-2.8,12-6l3.3-3.3l0,4.6c-0.1,4-0.2,7.9-0.3,11.8c0,6.9-0.8,18-6.4,29.8
			c-8.4,18-22.6,27-33.3,33.6c-26.7,16.5-54.1,18.5-69.1,18.3L331,321l-0.1-1.3l-5-0.4l4.9-2.4l-0.1-1.1l2,0.2
			c13.4-6.8,27.9-25.3,32.4-39.4c2.2-8.2,2.1-17.2-1.5-24.9c-2.8-5.9-7.8-10.9-14.3-12.2c-11-2.1-23.2,6.8-28.6,15.8l-2.3,3.8
			l-1.2-4.2c-3.6-12.6-14.6-16.7-26.6-14.4c-13.7,3.8-20.5,17.5-18.2,31.1c2.8,15.9,19.8,35.4,33.2,43.8l4.1,2.5l-4.7,0.9
			c-5.7,0.5-14,0.7-23.5-1.7c-10-2.5-16-6.5-21.4-9.5c-17.1-9.6-37.1-14.4-52.8-14.7c-9.9-0.2-34.3-0.5-46.7,16
			c-4.5,6-8.3,15.5-7,26c3.5,28.8,41.7,34.8,50,67c2.5,9.6,1,16.4-0.7,20.7c-1,2.6-4.7,12-13.7,14.3c-6.6,1.7-12.5-1.5-15.1-2.9
			c-7.2-4-10.4-10.2-11.5-12.7c-4.5,3.2-9.1,6.4-13.6,9.6c1.4,3.4,4.2,9.2,9.9,14.4c10.6,9.6,27.3,13.6,41.7,7.7
			c10.6-4.3,16-12.4,17.7-15c8-12.3,6.8-25.3,6.3-29.7c-2.3-20.9-17.6-36.3-26.7-45.3c-10.5-10.5-19.8-13.8-22.3-25
			c-0.2-1-1.9-9,1.4-15.6c6.3-12.6,29.9-17.8,57.6-9.7c0.2,47.6,0.4,95.1,0.7,142.7l20.2,0l0.1-66.2l0.1-0.3
			c2.6-6.7,6.5-12.7,12.8-16.4l2.9-1.7l0,3.4c-0.1,13.6-0.1,27.2-0.1,40.9c0,13.4,0,26.8,0.1,40.2c6.1,0,12.3,0,18.4,0.1
			c-0.1-14.8-0.2-29.7-0.3-44.5c-0.1-13.4-0.1-26.9-0.1-40.3c-1.2-8.8-7.1-17.5-16.8-17.4c-5.7,0.4-9.6,4.3-12.8,8.7l-3.4,4.8
			c-0.1-14.8-0.2-29.6-0.2-44.5c1.2,0.5,5.9,2.4,9.9,3.7c11.7,3.8,29.5,6.9,54.6,2.3l0.5-0.2l0.6,0.1c12.8,3.3,25.9,4.2,39.1,3
			c43.7-4,70.1-27.9,70.1-27.9c6-5.8,18.7-19,25.9-37.7c4.3-11.2,5.8-22.2,6.1-24.4c0.8-6.4,0.9-11.2,1-13.5
			C463.9,213.2,464,177.3,463.8,129.5z M318.1,314.4l-0.9,0.6l-1-0.5c-16-7.8-28.7-23.7-32.4-41.1l0-0.1c-0.9-5.8,0.2-12.7,4.5-17
			c4.9-5,12.2-4.4,18.2-2.1l0.1,0l0.1,0c5,2.6,8.9,4.9,12,9.3c6-6.8,15.1-12.2,24.3-10.7c3.8,0.7,7.3,3,9.4,6.2
			c3.2,4.9,3,10.9,1.5,16.3C349.3,291.6,331.5,305.6,318.1,314.4z"/>
	</g>
</g>
</svg>
